<?xml version="1.0" standalone="no"?>
<!DOCTYPE svg PUBLIC "-//W3C//DTD SVG 1.1//EN" "http://www.w3.org/Graphics/SVG/1.1/DTD/svg11.dtd" >
<svg>
<metadata>
Created by FontForge 20120731 at Sun Jul 24 01:43:15 2016
 By ,,,
2004 T.26 Digital Type Foundry www.t26.com PSID#5134577 designer: Neil Summerour / Positype
</metadata>
<defs>
<font id="AauxProMedium" horiz-adv-x="252" >
  <font-face 
    font-family="Aaux ProMedium"
    font-weight="400"
    font-stretch="normal"
    units-per-em="1000"
    panose-1="0 0 4 0 0 0 0 0 0 0"
    ascent="800"
    descent="-200"
    x-height="487"
    cap-height="698"
    bbox="-100 -226 971 978"
    underline-thickness="40"
    underline-position="-115"
    unicode-range="U+0020-F002"
  />
<missing-glyph horiz-adv-x="500" 
d="M63 0v775h375v-775h-375zM125 63h250v650h-250v-650z" />
    <glyph glyph-name=".notdef" horiz-adv-x="500" 
d="M63 0v775h375v-775h-375zM125 63h250v650h-250v-650z" />
    <glyph glyph-name=".null" horiz-adv-x="0" 
 />
    <glyph glyph-name="nonmarkingreturn" horiz-adv-x="280" 
 />
    <glyph glyph-name="space" unicode=" " horiz-adv-x="280" 
 />
    <glyph glyph-name="exclam" unicode="!" horiz-adv-x="295" 
d="M202 698v-334l-5 -198h-79l-5 198v334h89zM215 49q0 -23 -17 -40t-41 -17q-23 0 -40 17t-17 40q0 24 17 41t40 17q24 0 41 -17t17 -41z" />
    <glyph glyph-name="quotedbl" unicode="&#x22;" horiz-adv-x="361" 
d="M301 547h-86v148q0 17 12.5 30t30.5 13t30.5 -13t12.5 -30v-148zM146 547h-86v148q0 17 12.5 30t30.5 13t30.5 -13t12.5 -30v-148z" />
    <glyph glyph-name="numbersign" unicode="#" horiz-adv-x="715" 
d="M660 496l-18 -81h-121l-28 -132h121l-17 -81h-122l-44 -202h-82l44 202h-134l-44 -202h-82l43 202h-121l17 81h122l28 132h-121l17 81h122l43 202h83l-44 -202h134l44 202h82l-43 -202h121zM438 415h-133l-29 -132h134z" />
    <glyph glyph-name="dollar" unicode="$" horiz-adv-x="528" 
d="M486 228q0 -74 -53 -123q-49 -43 -122 -52v-53h-79v54q-159 19 -185 166l78 21q17 -93 107 -108v201q-76 18 -111 44q-53 38 -53 109q0 68 51 110q45 36 113 43v58h79v-59q110 -16 163 -131l-72 -33q-33 71 -91 83v-161q82 -20 120 -50q55 -42 55 -119zM232 416v144
q-84 -13 -84 -73q0 -48 84 -71zM406 228q0 63 -95 88v-183q95 17 95 95z" />
    <glyph glyph-name="percent" unicode="%" horiz-adv-x="788" 
d="M733 186q0 -82 -29 -128q-41 -68 -120 -68t-121 68q-28 46 -28 128q0 83 28 129q42 68 121 68t120 -68q29 -47 29 -129zM591 698l-314 -698h-80l314 698h80zM353 511q0 -82 -28 -129q-42 -68 -121 -68t-121 68q-28 47 -28 129t28 129q42 68 121 68t121 -68
q28 -47 28 -129zM664 186q0 63 -20 95.5t-60 32.5t-62 -34q-18 -31 -18 -94q0 -62 18 -93q22 -35 62 -35t61 35q19 31 19 93zM284 511q0 63 -19 93q-21 35 -61 35t-61 -35q-19 -30 -19 -93t19 -93q21 -35 61 -35t62 35q18 30 18 93z" />
    <glyph glyph-name="ampersand" unicode="&#x26;" horiz-adv-x="645" 
d="M596 65l-44 -74q-33 25 -81 66q-78 -67 -202 -67q-95 0 -161 50q-72 55 -72 150q0 127 131 208q-56 86 -56 155q0 66 42.5 109t109.5 43q66 0 106 -41t40 -106q0 -100 -123 -180q82 -108 172 -195q28 59 28 154h86q0 -131 -49 -213q16 -13 73 -59zM323 558q0 63 -60 63
q-66 0 -66 -68q0 -48 42 -111q84 55 84 116zM406 116q-100 96 -190 215q-49 -31 -70 -60q-24 -34 -24 -81q0 -53 45 -86q42 -32 102 -32q81 0 137 44z" />
    <glyph glyph-name="quotesingle" unicode="'" horiz-adv-x="206" 
d="M146 547h-86v148q0 17 12.5 30t30.5 13t30.5 -13t12.5 -30v-148z" />
    <glyph glyph-name="parenleft" unicode="(" horiz-adv-x="343" 
d="M303 0h-111q-67 66 -105 161q-37 92 -37 188t37.5 190t104.5 159h111q-83 -67 -127 -162q-41 -89 -41 -187t41 -187q44 -95 127 -162z" />
    <glyph glyph-name="parenright" unicode=")" horiz-adv-x="343" 
d="M293 349q0 -96 -37 -188q-38 -95 -105 -161h-111q83 67 127 162q41 89 41 187t-41 187q-44 95 -127 162h111q67 -65 104.5 -159t37.5 -190z" />
    <glyph glyph-name="asterisk" unicode="*" horiz-adv-x="448" 
d="M403 552l-127 -37l81 -106l-58 -42l-75 110l-75 -110l-58 42l82 106l-128 37l22 68l125 -45l-3 133h71l-4 -133l125 45z" />
    <glyph glyph-name="plus" unicode="+" horiz-adv-x="511" 
d="M466 238h-175v-175h-71v175h-175v71h175v175h71v-175h175v-71z" />
    <glyph glyph-name="comma" unicode="," horiz-adv-x="235" 
d="M170 -14l-81 -126h-24v176q0 21 15.5 35.5t36.5 14.5q22 0 37.5 -14.5t15.5 -35.5v-50z" />
    <glyph glyph-name="hyphen" unicode="-" horiz-adv-x="407" 
d="M342 238h-277v71h277v-71z" />
    <glyph glyph-name="hyphen" unicode="&#x2010;" horiz-adv-x="407" 
d="M342 238h-277v71h277v-71z" />
    <glyph glyph-name="period" unicode="." 
d="M187 52q0 -25 -18 -42.5t-43 -17.5t-43 17.5t-18 42.5q0 26 18 43.5t43 17.5t43 -17.5t18 -43.5z" />
    <glyph glyph-name="slash" unicode="/" horiz-adv-x="416" 
d="M411 774l-320 -850h-86l320 850h86z" />
    <glyph glyph-name="zero" unicode="0" horiz-adv-x="585" 
d="M535 349q0 -145 -48 -237q-62 -119 -194 -119t-195 119q-48 92 -48 237t48 237q63 117 195 117t194 -117q48 -92 48 -237zM450 349q0 273 -157 273t-157 -273q0 -275 157 -275t157 275z" />
    <glyph glyph-name="one" unicode="1" horiz-adv-x="392" 
d="M262 0h-87v581l-101 -69l-44 67l177 119h55v-698z" />
    <glyph glyph-name="two" unicode="2" horiz-adv-x="557" 
d="M507 0h-457v72q62 160 187 255q54 36 107 72q58 46 58 107q0 54 -40 86t-95 32q-97 0 -138 -96l-75 35q62 143 213 143q93 0 156 -53q66 -56 66 -148q0 -67 -30 -111q-22 -34 -74 -69q-47 -32 -95 -64q-97 -75 -141 -178h358v-83z" />
    <glyph glyph-name="three" unicode="3" horiz-adv-x="537" 
d="M487 201q0 -94 -64 -151t-161 -57q-169 0 -222 159l81 25q34 -102 142 -102q59 0 98 35t39 91q0 132 -168 131v63q153 -1 153 117q0 47 -38 80t-89 33q-95 0 -129 -94l-77 31q58 144 206 144q90 0 150.5 -54t60.5 -140q0 -104 -78 -145q96 -47 96 -166z" />
    <glyph glyph-name="four" unicode="4" horiz-adv-x="550" 
d="M510 173h-67v-173h-85v173h-328v68l298 457h94l-288 -444h224v278l85 -16v-262h67v-81z" />
    <glyph glyph-name="five" unicode="5" horiz-adv-x="542" 
d="M502 238q0 -110 -64 -177.5t-173 -67.5q-166 0 -215 152l80 30q33 -100 136 -100q72 0 112 46q38 43 38 117q0 72 -38 115.5t-109 43.5q-70 0 -123 -49h-71v350h382v-81h-299v-171q54 32 110 32q109 0 171.5 -65.5t62.5 -174.5z" />
    <glyph glyph-name="six" unicode="6" horiz-adv-x="548" 
d="M508 215q0 -94 -64 -157.5t-159 -63.5q-106 0 -170.5 68t-64.5 170q0 289 253 465l119 1q-105 -75 -157 -130q-72 -74 -104 -164q51 42 125 42q98 0 160 -66.5t62 -164.5zM425 215q0 63 -38.5 106t-100.5 43q-69 0 -108 -38t-39 -107q0 -59 44 -101.5t103 -42.5t99 40.5
t40 99.5z" />
    <glyph glyph-name="seven" unicode="7" horiz-adv-x="499" 
d="M469 626q-229 -244 -219 -626h-89q-2 209 60 375q46 121 136 240h-245v-48h-82v131h439v-72z" />
    <glyph glyph-name="eight" unicode="8" horiz-adv-x="538" 
d="M498 203q0 -95 -68 -154q-64 -56 -161 -56t-161 56q-68 59 -68 154q0 110 90 164q-72 52 -72 143q0 85 64 141q60 53 147 53t148.5 -54t61.5 -140q0 -91 -71 -143q90 -54 90 -164zM393 510q0 49 -37 80.5t-87 31.5t-87 -31.5t-37 -80.5q0 -54 36 -83q33 -27 88 -27
t89.5 28t34.5 82zM411 203q0 61 -41 98q-39 34 -101 34q-63 0 -103 -35t-40 -97q0 -57 44 -94q40 -34 99 -34q58 0 100 35.5t42 92.5z" />
    <glyph glyph-name="nine" unicode="9" horiz-adv-x="534" 
d="M489 458q3 -275 -253 -458h-113q114 88 173 158q52 62 87 146q-56 -42 -121 -42q-95 0 -158.5 64.5t-63.5 157.5q0 91 63 156t157 65q106 0 169 -75q59 -69 60 -172zM400 484q0 59 -41 99t-100 40q-57 0 -96 -41t-39 -98q0 -58 39 -99t96 -41q60 0 100.5 40.5t40.5 99.5z
" />
    <glyph glyph-name="colon" unicode=":" 
d="M187 341q0 -26 -18 -43.5t-43 -17.5t-43 17.5t-18 43.5q0 25 18 43t43 18t43 -18t18 -43zM187 52q0 -25 -18 -42.5t-43 -17.5t-43 17.5t-18 42.5q0 26 18 43.5t43 17.5t43 -17.5t18 -43.5z" />
    <glyph glyph-name="semicolon" unicode=";" 
d="M187 341q0 -26 -18 -43.5t-43 -17.5t-43 17.5t-18 43.5q0 25 18 43t43 18t43 -18t18 -43zM178 -14l-81 -126h-24v176q0 21 15.5 35.5t37.5 14.5q21 0 36.5 -14.5t15.5 -35.5v-50z" />
    <glyph glyph-name="less" unicode="&#x3c;" horiz-adv-x="480" 
d="M430 0h-110l-270 349l270 349h110l-270 -349z" />
    <glyph glyph-name="equal" unicode="=" horiz-adv-x="521" 
d="M466 315h-411v69h411v-69zM466 116h-411v70h411v-70z" />
    <glyph glyph-name="greater" unicode="&#x3e;" horiz-adv-x="480" 
d="M430 349l-270 -349h-110l270 349l-270 349h110z" />
    <glyph glyph-name="question" unicode="?" horiz-adv-x="488" 
d="M451 518q0 -89 -88 -142q-41 -24 -55 -42q-19 -24 -22 -66l-4 -94h-64q-9 70 -9 95q0 65 29 106q18 27 60 53q39 24 49 34q21 22 21 56q0 48 -33 76.5t-85 28.5t-86 -29q-37 -33 -37 -91h-81q0 95 63 151q57 52 141 52q83 0 142 -52t59 -136zM308 49q0 -24 -17 -40.5
t-40 -16.5q-24 0 -41 16.5t-17 40.5t17 40.5t41 16.5q23 0 40 -16.5t17 -40.5z" />
    <glyph glyph-name="at" unicode="@" horiz-adv-x="715" 
d="M630 274l-17 -277l-83 5l4 65q-71 -80 -154 -80q-25 0 -49 9q-52 19 -80 70q-27 48 -27 115q0 62 24 125q49 129 150 174q35 16 70 16q55 0 95 -37q-17 122 -99 152q-19 7 -42 7q-68 0 -136 -60q-71 -63 -109 -166q-29 -76 -29 -149q0 -120 71 -183l-46 -69
q-108 87 -108 251q0 88 34 179q46 122 136.5 200.5t187.5 78.5q36 0 70 -12q83 -30 125 -120q32 -68 32 -155q0 -69 -20 -139zM488 411q-24 8 -55 -5q-70 -32 -107 -129q-18 -48 -18 -95q0 -42 15 -72q19 -40 56 -40t76 36q43 38 66 100q19 49 19 96q0 40 -14 70t-38 39z
" />
    <glyph glyph-name="A" unicode="A" horiz-adv-x="655" 
d="M645 0h-95l-79 202h-288l-78 -202h-95l273 698h89zM439 286l-112 284l-111 -284h223z" />
    <glyph glyph-name="B" unicode="B" horiz-adv-x="629" 
d="M574 199q0 -114 -84 -166q-55 -33 -153 -33h-262v698h244q95 0 148 -32q81 -50 81 -161q0 -88 -56 -141q82 -52 82 -165zM461 505q0 64 -42 88q-32 19 -100 19h-156v-213h156q68 0 100 19q42 24 42 87zM486 199q0 68 -44 94q-33 20 -105 20h-174v-227h174q72 0 105 20
q44 26 44 93z" />
    <glyph glyph-name="C" unicode="C" horiz-adv-x="602" 
d="M557 581l-68 -55q-41 49 -70 68q-39 26 -92 26q-194 0 -194 -271t194 -271q53 0 92 26q29 19 70 68l67 -55q-54 -65 -99 -92q-56 -34 -130 -34q-148 0 -226 120q-56 85 -56 238q0 154 56 238q78 120 226 120q74 0 130 -34q45 -27 100 -92z" />
    <glyph glyph-name="D" unicode="D" horiz-adv-x="639" 
d="M584 349q0 -101 -8 -155q-17 -115 -97 -159q-62 -35 -189 -35h-215v698h215q127 0 189 -35q80 -44 97 -159q8 -53 8 -155zM496 349q0 95 -7 144q-11 78 -69 103q-36 16 -130 16h-127v-525h127q94 0 130 15q58 25 69 103q7 50 7 144z" />
    <glyph glyph-name="E" unicode="E" horiz-adv-x="579" 
d="M529 0h-454v698h454v-86h-367v-212h321v-80h-321v-234h367v-86z" />
    <glyph glyph-name="F" unicode="F" horiz-adv-x="559" 
d="M519 612h-357v-211h320v-81h-320v-320h-87v698h444v-86z" />
    <glyph glyph-name="G" unicode="G" horiz-adv-x="635" 
d="M570 380l-1 -380h-79v72q-29 -46 -71 -65q-37 -16 -96 -16q-144 0 -217 112q-61 95 -61 246q0 153 62 247q74 111 220 111q74 0 130 -34q47 -28 100 -92l-67 -55q-40 48 -70 68q-40 26 -93 26q-194 0 -194 -271t190 -271q85 0 125 70q33 56 33 148h-173v84h262z" />
    <glyph glyph-name="H" unicode="H" horiz-adv-x="664" 
d="M589 0h-88v320h-338v-320h-88v698h88v-295h338v295h88v-698z" />
    <glyph glyph-name="I" unicode="I" horiz-adv-x="251" 
d="M171 0h-91v698h91v-698z" />
    <glyph glyph-name="J" unicode="J" horiz-adv-x="526" 
d="M461 218q0 -96 -40 -148q-59 -77 -186 -77q-129 0 -188 89q-18 27 -32 80l84 22q11 -40 21 -55q33 -50 115 -49q84 0 116 42q22 29 22 96v480h88v-480z" />
    <glyph glyph-name="K" unicode="K" horiz-adv-x="579" 
d="M564 0h-103l-298 350v-350h-88v698h88v-344l257 344h96l-259 -346z" />
    <glyph glyph-name="L" unicode="L" horiz-adv-x="503" 
d="M488 0h-413v698h87v-612h326v-86z" />
    <glyph glyph-name="M" unicode="M" horiz-adv-x="738" 
d="M663 0h-88v450l-168 -450h-77l-167 447v-447h-88v698h73l221 -567l211 567h83v-698z" />
    <glyph glyph-name="N" unicode="N" horiz-adv-x="640" 
d="M565 0h-83l-319 523v-523h-88v698h83l320 -523v523h87v-698z" />
    <glyph glyph-name="O" unicode="O" horiz-adv-x="656" 
d="M611 349q0 -154 -56 -238q-79 -120 -227 -120t-227 120q-56 84 -56 238t56 238q80 120 227 120q148 0 227 -120q56 -84 56 -238zM523 349q0 129 -42 191q-53 80 -153 80t-153 -80q-42 -62 -42 -191q0 -128 42 -191q53 -80 153 -80t153 80q42 63 42 191z" />
    <glyph glyph-name="P" unicode="P" horiz-adv-x="604" 
d="M574 499q0 -115 -84 -167q-54 -33 -153 -33h-174v-299h-88v698h262q99 0 153 -33q84 -52 84 -166zM486 499q0 66 -43 93q-32 20 -106 20h-174v-227h174q74 0 106 21q43 26 43 93z" />
    <glyph glyph-name="Q" unicode="Q" horiz-adv-x="680" 
d="M640 0h-114l-32 38q-68 -47 -156 -47q-149 0 -227 120q-56 85 -56 238t56 238q79 120 227 120q149 0 227 -120q56 -85 56 -238q0 -164 -64 -250zM533 349q0 127 -42 191q-52 80 -153 80q-100 0 -153 -80q-42 -64 -42 -191t42 -191q53 -80 153 -80q56 0 98 26
q-40 37 -117 44v86q114 -9 178 -68q36 61 36 183z" />
    <glyph glyph-name="R" unicode="R" horiz-adv-x="608" 
d="M576 0h-98l-150 257q-29 49 -75 49h-91v-306h-86v698h243q104 0 164 -45q67 -51 67 -151q0 -73 -43.5 -128t-115.5 -67q7 -8 19 -25zM464 502q0 111 -145 111h-157v-232h160q142 0 142 121z" />
    <glyph glyph-name="S" unicode="S" horiz-adv-x="618" 
d="M573 203q0 -98 -78 -158q-71 -54 -173 -54q-239 0 -277 217l87 15q14 -79 63 -114q44 -31 127 -31q65 0 110 29q53 35 53 96q0 76 -107 110q-99 28 -198 57q-107 46 -107 153q0 90 72 139q63 43 157 43q96 0 155 -36.5t100 -121.5l-80 -37q-30 62 -67 85t-108 23
q-141 0 -141 -95q0 -61 107 -92q185 -54 198 -61q107 -53 107 -167z" />
    <glyph glyph-name="T" unicode="T" horiz-adv-x="554" 
d="M534 612h-213v-612h-88v612h-213v86h514v-86z" />
    <glyph glyph-name="U" unicode="U" horiz-adv-x="654" 
d="M584 293q0 -302 -257 -302t-257 302v405h88v-405q0 -104 31 -153q39 -64 138 -64t139 64q30 49 30 153v405h88v-405z" />
    <glyph glyph-name="V" unicode="V" horiz-adv-x="587" 
d="M562 698l-229 -698h-79l-229 698h92l176 -538l176 538h93z" />
    <glyph glyph-name="W" unicode="W" horiz-adv-x="785" 
d="M760 698l-168 -698h-82l-117 490l-118 -490h-82l-168 698h91l118 -497l118 497h81l118 -497l118 497h91z" />
    <glyph glyph-name="X" unicode="X" horiz-adv-x="620" 
d="M595 0h-105l-180 279l-181 -279h-104l233 360l-219 338h104l167 -258l167 258h104l-219 -338z" />
    <glyph glyph-name="Y" unicode="Y" horiz-adv-x="599" 
d="M574 698l-231 -466v-232h-87v234l-231 464h98l177 -356l176 356h98z" />
    <glyph glyph-name="Z" unicode="Z" horiz-adv-x="591" 
d="M536 0h-491v69l375 543h-340v86h456v-73l-373 -539h373v-86z" />
    <glyph glyph-name="bracketleft" unicode="[" horiz-adv-x="294" 
d="M244 -76h-174v850h174v-53h-92v-744h92v-53z" />
    <glyph glyph-name="backslash" unicode="\" horiz-adv-x="416" 
d="M411 -76h-86l-320 850h86z" />
    <glyph glyph-name="bracketright" unicode="]" horiz-adv-x="294" 
d="M224 -76h-174v53h92v744h-92v53h174v-850z" />
    <glyph glyph-name="asciicircum" unicode="^" horiz-adv-x="551" 
d="M496 411l-71 -39l-149 234l-149 -234l-72 39l183 287h75z" />
    <glyph glyph-name="underscore" unicode="_" horiz-adv-x="529" 
d="M514 -74h-499v74h499v-74z" />
    <glyph glyph-name="grave" unicode="`" horiz-adv-x="328" 
d="M253 545h-73l-105 146h94z" />
    <glyph glyph-name="a" unicode="a" horiz-adv-x="478" 
d="M433 12l-79 -24l-11 36q-57 -34 -131 -34q-66 0 -115 41q-52 43 -52 109q0 68 51 110q47 40 116 40h82q26 0 40 11v45q0 32 -27.5 50t-63.5 18q-84 0 -107 -76l-76 29q39 128 185 128q68 0 117 -39q55 -42 55 -110v-282zM334 112v105q-17 -5 -34 -5h-89q-33 0 -58 -20.5
t-25 -51.5t25.5 -50.5t58.5 -19.5q74 0 122 42z" />
    <glyph glyph-name="b" unicode="b" horiz-adv-x="506" 
d="M461 243q0 -252 -199 -252q-67 0 -109 32v-23h-83v698h83v-240q46 37 109 37q199 0 199 -252zM379 243q0 80 -21 119q-27 51 -96 51q-47 0 -78 -26.5t-31 -71.5v-145q0 -44 31 -70.5t78 -26.5q69 0 96 51q21 39 21 119z" />
    <glyph glyph-name="c" unicode="c" horiz-adv-x="490" 
d="M445 80q-44 -47 -79 -66q-42 -22 -100 -22q-106 0 -166 74q-55 68 -55 177t55 178q60 74 166 74q58 0 100 -23q35 -19 79 -66l-62 -55q-31 34 -51 46q-29 18 -66 18q-133 0 -133 -172t133 -172q37 0 66 18q20 13 51 47z" />
    <glyph glyph-name="d" unicode="d" horiz-adv-x="513" 
d="M453 12l-79 -24l-11 38q-48 -35 -118 -35q-200 0 -200 252q0 253 200 253q67 0 109 -31v233h83v-634zM354 172v147q0 40 -32 67t-77 27q-69 0 -96 -51q-21 -39 -21 -119t21 -119q27 -51 96 -51q47 0 78 25.5t31 73.5z" />
    <glyph glyph-name="e" unicode="e" horiz-adv-x="493" 
d="M448 262l-1 -50h-319q6 -139 137 -139q74 0 120 58l58 -57q-66 -82 -178 -82q-220 0 -220 249q0 113 48 178q54 74 163 74q98 0 148 -68q44 -60 44 -163zM364 293q-6 120 -108 120q-112 0 -125 -120h233z" />
    <glyph glyph-name="f" unicode="f" horiz-adv-x="306" 
d="M286 698v-84q-86 0 -103 -61q-7 -24 -7 -66h95v-73h-95v-414h-82v414h-44v73h44q0 90 29 137q46 74 163 74z" />
    <glyph glyph-name="g" unicode="g" horiz-adv-x="510" 
d="M475 -7q0 -82 -75 -134q-67 -46 -153 -46q-80 0 -134 28q-68 35 -68 108q0 23 9 52l77 -27q-4 -11 -4 -20q0 -66 120 -66q50 0 95 26q52 31 52 77q0 20 -16.5 31.5t-36.5 11.5q-27 0 -79.5 -12.5t-79.5 -12.5q-42 0 -70 21q-31 23 -31 63q0 51 50 92q-62 43 -62 138
q0 81 49.5 126.5t131.5 45.5q74 0 121 -36q17 8 15 50h81q1 -85 -48 -113q11 -32 11 -73q0 -169 -180 -169q-25 0 -47 4q-44 -31 -44 -64q0 -15 19 -15q28 0 81.5 14t81.5 14q54 0 92 -29q42 -32 42 -85zM347 323q0 93 -97 93q-99 0 -99 -93q0 -97 100 -97q96 0 96 97z" />
    <glyph glyph-name="h" unicode="h" horiz-adv-x="521" 
d="M461 0h-82v282q0 67 -24 98q-28 34 -93 34q-48 0 -78.5 -32.5t-30.5 -81.5v-300h-83v698h83v-241q46 39 109 39q199 0 199 -209v-287z" />
    <glyph glyph-name="i" unicode="i" horiz-adv-x="232" 
d="M167 655q0 -21 -15 -36t-36 -15t-36 15t-15 36t15 36t36 15t36 -15t15 -36zM157 0h-83v487h83v-487z" />
    <glyph glyph-name="j" unicode="j" horiz-adv-x="254" 
d="M184 655q0 -21 -15 -36t-36 -15t-36 15t-15 36t15 36t36 15t36 -15t15 -36zM175 -13q0 -207 -195 -207v81q66 0 91 31q21 27 21 95v500h83v-500z" />
    <glyph glyph-name="k" unicode="k" horiz-adv-x="479" 
d="M469 0h-112l-204 254v-254h-83v698h83v-419l176 208h110l-190 -219z" />
    <glyph glyph-name="l" unicode="l" horiz-adv-x="226" 
d="M191 0q-121 0 -121 125v573h81v-573q0 -24 8 -32.5t32 -8.5v-84z" />
    <glyph glyph-name="m" unicode="m" horiz-adv-x="785" 
d="M725 0h-84v296q0 51 -26.5 84t-76.5 33q-45 0 -72 -34.5t-27 -82.5v-296h-83v296q0 52 -26 84q-29 33 -79 33q-41 0 -69 -33.5t-28 -79.5v-300h-84v487h84v-28q46 37 97 37q93 0 146 -71q56 71 141 71q86 0 138 -59q49 -56 49 -141v-296z" />
    <glyph glyph-name="n" unicode="n" horiz-adv-x="521" 
d="M461 0h-82v279q0 69 -24 99q-27 33 -93 33q-48 0 -78.5 -33t-30.5 -81v-297h-83v487h83v-35q50 43 109 43q199 0 199 -211v-284z" />
    <glyph glyph-name="o" unicode="o" horiz-adv-x="507" 
d="M462 243q0 -250 -208 -250q-209 0 -209 249q0 252 209 252q208 0 208 -251zM379 242q0 82 -23 121q-29 50 -103 50q-73 0 -102 -50q-23 -39 -23 -121q0 -81 23 -120q29 -48 102 -48q74 0 103 48q23 39 23 120z" />
    <glyph glyph-name="p" unicode="p" horiz-adv-x="506" 
d="M461 239q0 -250 -199 -250q-70 0 -109 28v-237h-83v707h83v-28q46 36 109 36q199 0 199 -256zM379 240q0 78 -20 117q-27 53 -97 53q-46 0 -77.5 -28t-31.5 -73v-138q0 -45 31.5 -72t77.5 -27q70 0 97 52q20 38 20 116z" />
    <glyph glyph-name="q" unicode="q" horiz-adv-x="514" 
d="M454 470l-16 -52v-638h-83v239q-48 -30 -109 -30q-201 0 -201 252q0 253 201 253q65 0 118 -38l11 38zM355 172v139q0 45 -31.5 72.5t-77.5 27.5q-69 0 -97 -51q-20 -39 -20 -119q0 -81 20 -119q27 -50 97 -50q47 0 78 27t31 73z" />
    <glyph glyph-name="r" unicode="r" horiz-adv-x="386" 
d="M356 465l-35 -71q-32 18 -63 18q-44 0 -74 -23q-33 -25 -33 -67v-322h-81v487h81v-25q42 34 107 34q63 0 98 -31z" />
    <glyph glyph-name="s" unicode="s" horiz-adv-x="466" 
d="M426 142q0 -71 -59 -113q-52 -38 -126 -38q-165 0 -201 142l83 15q15 -44 44 -60q25 -15 74 -15q38 0 66 15q35 19 35 54q0 47 -74 69q-69 20 -137 39q-74 35 -74 110q0 67 54 104q46 31 116 31q129 0 180 -102l-75 -37q-30 56 -105 56q-86 0 -86 -52q0 -32 74 -51
q109 -28 137 -43q74 -40 74 -124z" />
    <glyph glyph-name="t" unicode="t" horiz-adv-x="291" 
d="M246 413h-72v-289q0 -40 39 -40h22v-84h-23q-119 0 -119 124v289h-63v75h63v138h81v-138h72v-75z" />
    <glyph glyph-name="u" unicode="u" horiz-adv-x="516" 
d="M451 0h-82v25q-49 -34 -109 -34q-200 0 -200 215v281h83v-277q0 -71 24 -103q26 -35 93 -35q44 0 76.5 26.5t32.5 68.5v320h82v-487z" />
    <glyph glyph-name="v" unicode="v" horiz-adv-x="486" 
d="M466 487l-185 -487h-77l-184 487h91l132 -350l132 350h91z" />
    <glyph glyph-name="w" unicode="w" horiz-adv-x="766" 
d="M746 487l-160 -487h-78l-126 344l-127 -344h-78l-157 487h90l109 -338l124 338h77l124 -339l111 339h91z" />
    <glyph glyph-name="x" unicode="x" horiz-adv-x="491" 
d="M471 0h-103l-123 177l-122 -177h-103l174 250l-164 237h102l113 -159l113 159h103l-164 -237z" />
    <glyph glyph-name="y" unicode="y" horiz-adv-x="485" 
d="M465 487l-223 -602q-17 -44 -44 -69q-41 -37 -98 -36h-38v84q50 0 62 4q23 9 38 46l33 87l-175 486h91l130 -365l133 365h91z" />
    <glyph glyph-name="z" unicode="z" horiz-adv-x="466" 
d="M421 0h-381v74l264 331h-241v82h358v-71l-266 -334h266v-82z" />
    <glyph glyph-name="braceleft" unicode="{" horiz-adv-x="334" 
d="M303 -76q-193 0 -193 187q0 19 7.5 56.5t7.5 56.5q0 93 -94 92v66q94 -1 94 92q0 18 -7.5 53.5t-7.5 53.5q0 100 46 147t147 47v-77q-64 0 -87 -32q-20 -27 -20 -93q0 -16 8 -48.5t8 -48.5q0 -85 -57 -127q57 -41 57 -126q0 -17 -8 -50.5t-8 -50.5q0 -61 22 -89
q25 -31 85 -31v-78z" />
    <glyph glyph-name="bar" unicode="|" horiz-adv-x="276" 
d="M181 -76h-86v850h86v-850z" />
    <glyph glyph-name="braceright" unicode="}" horiz-adv-x="334" 
d="M303 316q-94 1 -94 -92q0 -19 7.5 -56.5t7.5 -56.5q0 -187 -193 -187v78q60 0 85 31q22 28 22 89q0 17 -8.5 50.5t-8.5 50.5q0 85 57 126q-56 42 -56 127q0 16 7.5 48.5t7.5 48.5q0 66 -19 93q-24 32 -87 32v77q101 0 146.5 -47t45.5 -147q0 -18 -7 -53.5t-7 -53.5
q0 -93 94 -92v-66z" />
    <glyph glyph-name="asciitilde" unicode="~" horiz-adv-x="509" 
d="M459 295q-68 -72 -124 -72q-38 0 -88.5 32t-75.5 32q-29 0 -62 -47l-59 53q61 73 123 73q38 0 88.5 -32t75.5 -32q27 0 65 48z" />
    <glyph glyph-name="Adieresis" unicode="&#xc4;" horiz-adv-x="655" 
d="M486 831q0 -23 -16.5 -39.5t-39.5 -16.5t-39.5 16.5t-16.5 39.5t16.5 39.5t39.5 16.5t39.5 -16.5t16.5 -39.5zM279 831q0 -23 -16.5 -39.5t-39.5 -16.5t-39.5 16.5t-16.5 39.5t16.5 39.5t39.5 16.5t39.5 -16.5t16.5 -39.5zM645 0h-95l-79 202h-288l-78 -202h-95l273 698
h89zM439 286l-112 284l-111 -284h223z" />
    <glyph glyph-name="Aring" unicode="&#xc5;" horiz-adv-x="655" 
d="M444 861q0 -48 -34 -82t-83 -34q-48 0 -82 34t-34 82t34 82.5t82 34.5q49 0 83 -34.5t34 -82.5zM645 0h-95l-79 202h-288l-78 -202h-95l273 698h89zM377 861q0 21 -14.5 35.5t-35.5 14.5q-20 0 -35 -14.5t-15 -35.5t15 -35.5t35 -14.5q21 0 35.5 14.5t14.5 35.5zM439 286
l-112 284l-111 -284h223z" />
    <glyph glyph-name="Ccedilla" unicode="&#xc7;" horiz-adv-x="602" 
d="M557 581l-68 -55q-48 57 -81.5 75.5t-80.5 18.5q-100 0 -152 -80q-42 -64 -42 -191t42 -191q52 -80 152 -80q47 0 80.5 19t81.5 75l67 -55q-91 -108 -181 -122l22 -62l-68 -129h-96l90 132l-21 56q-131 11 -201 119q-56 85 -56 238t56 238q78 120 226 120
q69 0 119.5 -27.5t110.5 -98.5z" />
    <glyph glyph-name="Eacute" unicode="&#xc9;" horiz-adv-x="579" 
d="M419 921l-105 -146h-73l84 146h94zM529 0h-454v698h454v-86h-367v-206h321v-86h-321v-234h367v-86z" />
    <glyph glyph-name="Ntilde" unicode="&#xd1;" horiz-adv-x="640" 
d="M507 817q-61 -66 -113 -66q-33 0 -79 29t-68 29q-27 0 -57 -43l-52 49q55 66 110 66q34 0 80 -29t68 -29q25 0 60 43zM565 0h-83l-319 523v-523h-88v698h83l320 -523v523h87v-698z" />
    <glyph glyph-name="Odieresis" unicode="&#xd6;" horiz-adv-x="656" 
d="M486 831q0 -23 -16.5 -39.5t-39.5 -16.5t-39.5 16.5t-16.5 39.5t16.5 39.5t39.5 16.5t39.5 -16.5t16.5 -39.5zM279 831q0 -23 -16.5 -39.5t-39.5 -16.5q-24 0 -40 16.5t-16 39.5t16 39.5t40 16.5q23 0 39.5 -16.5t16.5 -39.5zM611 349q0 -153 -56 -238
q-78 -120 -227 -120t-227 120q-56 85 -56 238t56 238q79 120 227 120q149 0 227 -120q56 -85 56 -238zM523 349q0 127 -42 191q-52 80 -153 80t-153 -80q-42 -64 -42 -191t42 -191q52 -80 153 -80t153 80q42 64 42 191z" />
    <glyph glyph-name="Udieresis" unicode="&#xdc;" horiz-adv-x="654" 
d="M489 831q0 -23 -16.5 -39.5t-39.5 -16.5t-39.5 16.5t-16.5 39.5t16.5 39.5t39.5 16.5t39.5 -16.5t16.5 -39.5zM282 831q0 -23 -16.5 -39.5t-39.5 -16.5q-24 0 -40 16.5t-16 39.5t16 39.5t40 16.5q23 0 39.5 -16.5t16.5 -39.5zM584 303q0 -132 -42 -202
q-67 -109 -215 -110q-148 0 -214 110q-43 70 -43 202v395h88v-395q0 -108 30 -158q41 -67 139 -67t139 67q30 50 30 158v395h88v-395z" />
    <glyph glyph-name="aacute" unicode="&#xe1;" horiz-adv-x="488" 
d="M360 691l-105 -146h-73l83 146h95zM433 12l-79 -24l-11 36q-57 -34 -131 -34q-66 0 -115 41q-52 43 -52 109q0 68 51 110q47 40 116 40h82q26 0 40 11v45q0 32 -27.5 50t-63.5 18q-84 0 -107 -76l-76 29q39 128 185 128q68 0 117 -39q55 -42 55 -110v-282zM334 112v105
q-17 -5 -34 -5h-89q-33 0 -58 -20.5t-25 -51.5t25.5 -50.5t58.5 -19.5q74 0 122 42z" />
    <glyph glyph-name="agrave" unicode="&#xe0;" horiz-adv-x="488" 
d="M314 545h-73l-105 146h94zM433 12l-79 -24l-11 36q-57 -34 -131 -34q-66 0 -115 41q-52 43 -52 109q0 68 51 110q47 40 116 40h82q26 0 40 11v45q0 32 -27.5 50t-63.5 18q-84 0 -107 -76l-76 29q39 128 185 128q68 0 117 -39q55 -42 55 -110v-282zM334 112v105
q-17 -5 -34 -5h-89q-33 0 -58 -20.5t-25 -51.5t25.5 -50.5t58.5 -19.5q74 0 122 42z" />
    <glyph glyph-name="acircumflex" unicode="&#xe2;" horiz-adv-x="488" 
d="M410 533h-104l-63 103l-63 -103h-103l115 146h103zM433 12l-79 -24l-11 36q-57 -34 -131 -34q-66 0 -115 41q-52 43 -52 109q0 68 51 110q47 40 116 40h82q26 0 40 11v45q0 32 -27.5 50t-63.5 18q-84 0 -107 -76l-76 29q39 128 185 128q68 0 117 -39q55 -42 55 -110v-282
zM334 112v105q-17 -5 -34 -5h-89q-33 0 -58 -20.5t-25 -51.5t25.5 -50.5t58.5 -19.5q74 0 122 42z" />
    <glyph glyph-name="adieresis" unicode="&#xe4;" horiz-adv-x="488" 
d="M404 598q0 -23 -16.5 -39.5t-39.5 -16.5t-39.5 16.5t-16.5 39.5t16.5 39.5t39.5 16.5t39.5 -16.5t16.5 -39.5zM197 598q0 -23 -16.5 -39.5t-39.5 -16.5t-39.5 16.5t-16.5 39.5t16.5 39.5t39.5 16.5t39.5 -16.5t16.5 -39.5zM433 12l-79 -24l-11 36q-57 -34 -131 -34
q-66 0 -115 41q-52 43 -52 109q0 68 51 110q47 40 116 40h82q26 0 40 11v45q0 32 -27.5 50t-63.5 18q-84 0 -107 -76l-76 29q39 128 185 128q68 0 117 -39q55 -42 55 -110v-282zM334 112v105q-17 -5 -34 -5h-89q-33 0 -58 -20.5t-25 -51.5t25.5 -50.5t58.5 -19.5
q74 0 122 42z" />
    <glyph glyph-name="atilde" unicode="&#xe3;" horiz-adv-x="488" 
d="M420 595q-56 -67 -114 -67q-36 0 -73 25.5t-57 25.5q-26 0 -55 -41l-56 45q51 68 112 68q33 0 72.5 -25.5t58.5 -25.5q29 0 58 42zM433 12l-79 -24l-11 36q-57 -34 -131 -34q-66 0 -115 41q-52 43 -52 109q0 68 49 109t118 41h82q26 0 40 11v45q0 32 -27.5 50t-63.5 18
q-84 0 -107 -76l-76 29q39 128 185 128q68 0 117 -39q55 -42 55 -110v-282zM334 112v105q-17 -5 -34 -5h-89q-33 0 -58 -20.5t-25 -51.5t25.5 -50.5t58.5 -19.5q74 0 122 42z" />
    <glyph glyph-name="aring" unicode="&#xe5;" horiz-adv-x="488" 
d="M368 649q0 -48 -34 -82.5t-82 -34.5q-49 0 -83 34.5t-34 82.5t34 82t83 34q48 0 82 -34t34 -82zM433 12l-79 -24l-11 36q-57 -34 -131 -34q-66 0 -115 41q-52 43 -52 109q0 68 51 110q47 40 116 40h82q26 0 40 11v45q0 32 -27.5 50t-63.5 18q-84 0 -107 -76l-76 29
q39 128 185 128q68 0 117 -39q55 -42 55 -110v-282zM302 649q0 21 -15 35.5t-35 14.5q-21 0 -35.5 -14.5t-14.5 -35.5t14.5 -35.5t35.5 -14.5q20 0 35 14.5t15 35.5zM334 112v105q-17 -5 -34 -5h-89q-33 0 -58 -20.5t-25 -51.5t25.5 -50.5t58.5 -19.5q74 0 122 42z" />
    <glyph glyph-name="ccedilla" unicode="&#xe7;" horiz-adv-x="490" 
d="M445 80q-71 -76 -141 -86l22 -61l-68 -129h-96l91 132l-22 58q-90 12 -139 83q-47 67 -47 166q0 109 55 178q60 74 166 74q58 0 100 -23q35 -19 79 -66l-62 -55q-31 34 -51 46q-29 18 -66 18q-133 0 -133 -172t133 -172q37 0 66 18q20 13 51 47z" />
    <glyph glyph-name="eacute" unicode="&#xe9;" horiz-adv-x="498" 
d="M353 691l-105 -146h-73l84 146h94zM448 262l-1 -50h-319q6 -139 137 -139q74 0 120 58l58 -57q-66 -82 -178 -82q-220 0 -220 249q0 113 48 178q54 74 163 74q98 0 148 -68q44 -60 44 -163zM364 293q-6 120 -108 120q-112 0 -125 -120h233z" />
    <glyph glyph-name="egrave" unicode="&#xe8;" horiz-adv-x="498" 
d="M322 545h-73l-105 146h94zM448 262l-1 -50h-319q6 -139 137 -139q74 0 120 58l58 -57q-66 -82 -178 -82q-220 0 -220 249q0 113 48 178q54 74 163 74q98 0 148 -68q44 -60 44 -163zM364 293q-6 120 -108 120q-112 0 -125 -120h233z" />
    <glyph glyph-name="ecircumflex" unicode="&#xea;" horiz-adv-x="498" 
d="M424 533h-104l-63 103l-63 -103h-104l115 146h103zM448 262l-1 -50h-319q6 -139 137 -139q74 0 120 58l58 -57q-66 -82 -178 -82q-220 0 -220 249q0 113 48 178q54 74 163 74q98 0 148 -68q44 -60 44 -163zM364 293q-6 120 -108 120q-112 0 -125 -120h233z" />
    <glyph glyph-name="edieresis" unicode="&#xeb;" horiz-adv-x="498" 
d="M406 598q0 -23 -16 -39.5t-39 -16.5q-24 0 -40 16.5t-16 39.5t16 39.5t40 16.5q23 0 39 -16.5t16 -39.5zM199 598q0 -23 -16 -39.5t-40 -16.5q-23 0 -39 16.5t-16 39.5t16 39.5t39 16.5q24 0 40 -16.5t16 -39.5zM448 262l-1 -50h-319q6 -139 137 -139q74 0 120 58l58 -57
q-66 -82 -178 -82q-220 0 -220 249q0 113 48 178q54 74 163 74q98 0 148 -68q44 -60 44 -163zM364 293q-6 120 -108 120q-112 0 -125 -120h233z" />
    <glyph glyph-name="iacute" unicode="&#xed;" horiz-adv-x="246" 
d="M243 691l-105 -146h-73l84 146h94zM160 0h-83v487h83v-487z" />
    <glyph glyph-name="igrave" unicode="&#xec;" horiz-adv-x="249" 
d="M184 545h-74l-105 146h95zM167 0h-84v487h84v-487z" />
    <glyph glyph-name="icircumflex" unicode="&#xee;" horiz-adv-x="255" 
d="M293 533h-104l-63 103l-62 -103h-104l115 146h103zM169 0h-83v487h83v-487z" />
    <glyph glyph-name="idieresis" unicode="&#xef;" horiz-adv-x="258" 
d="M278 598q0 -23 -16.5 -39.5t-39.5 -16.5t-39.5 16.5t-16.5 39.5t16.5 39.5t39.5 16.5q24 0 40 -16.5t16 -39.5zM91 598q0 -23 -16.5 -39.5t-39.5 -16.5t-39.5 16.5t-16.5 39.5t16.5 39.5t39.5 16.5t39.5 -16.5t16.5 -39.5zM168 0h-83v487h83v-487z" />
    <glyph glyph-name="ntilde" unicode="&#xf1;" horiz-adv-x="521" 
d="M447 595q-56 -67 -114 -67q-36 0 -73 25.5t-57 25.5q-26 0 -55 -41l-56 45q51 68 112 68q33 0 72.5 -25.5t58.5 -25.5q29 0 58 42zM461 0h-82v279q0 69 -24 99q-27 33 -93 33q-48 0 -78.5 -33t-30.5 -81v-297h-83v487h83v-35q50 43 109 43q199 0 199 -211v-284z" />
    <glyph glyph-name="oacute" unicode="&#xf3;" horiz-adv-x="522" 
d="M371 691l-105 -146h-73l84 146h94zM462 243q0 -250 -208 -250q-209 0 -209 249q0 252 209 252q208 0 208 -251zM379 242q0 82 -23 121q-29 50 -103 50q-73 0 -102 -50q-23 -39 -23 -121q0 -81 23 -120q29 -48 102 -48q74 0 103 48q23 39 23 120z" />
    <glyph glyph-name="ograve" unicode="&#xf2;" horiz-adv-x="522" 
d="M315 545h-73l-105 146h94zM462 243q0 -250 -208 -250q-209 0 -209 249q0 252 209 252q208 0 208 -251zM379 242q0 82 -23 121q-29 50 -103 50q-73 0 -102 -50q-23 -39 -23 -121q0 -81 23 -120q29 -48 102 -48q74 0 103 48q23 39 23 120z" />
    <glyph glyph-name="ocircumflex" unicode="&#xf4;" horiz-adv-x="522" 
d="M420 533h-103l-63 103l-63 -103h-104l115 146h103zM462 243q0 -250 -208 -250q-209 0 -209 249q0 252 209 252q208 0 208 -251zM379 242q0 82 -23 121q-29 50 -103 50q-73 0 -102 -50q-23 -39 -23 -121q0 -81 23 -120q29 -48 102 -48q74 0 103 48q23 39 23 120z" />
    <glyph glyph-name="odieresis" unicode="&#xf6;" horiz-adv-x="522" 
d="M412 598q0 -23 -16 -39.5t-39 -16.5q-24 0 -40 16.5t-16 39.5t16 39.5t40 16.5q23 0 39 -16.5t16 -39.5zM205 598q0 -23 -16 -39.5t-40 -16.5q-23 0 -39 16.5t-16 39.5t16 39.5t39 16.5q24 0 40 -16.5t16 -39.5zM462 243q0 -250 -208 -250q-209 0 -209 249q0 252 209 252
q208 0 208 -251zM379 242q0 82 -23 121q-29 50 -103 50q-73 0 -102 -50q-23 -39 -23 -121q0 -81 23 -120q29 -48 102 -48q74 0 103 48q23 39 23 120z" />
    <glyph glyph-name="otilde" unicode="&#xf5;" horiz-adv-x="522" 
d="M442 595q-56 -67 -114 -67q-36 0 -73 25.5t-57 25.5q-26 0 -55 -41l-56 45q51 68 112 68q33 0 72.5 -25.5t58.5 -25.5q29 0 58 42zM462 243q0 -250 -208 -250q-209 0 -209 249q0 252 209 252q208 0 208 -251zM379 242q0 82 -23 121q-29 50 -103 50q-73 0 -102 -49
q-23 -39 -23 -122q0 -81 23 -120q29 -48 102 -48q74 0 103 48q23 39 23 120z" />
    <glyph glyph-name="uacute" unicode="&#xfa;" horiz-adv-x="526" 
d="M355 691l-105 -146h-73l84 146h94zM451 0h-82v25q-49 -34 -109 -34q-200 0 -200 215v281h83v-277q0 -71 24 -103q26 -35 93 -35q44 0 76.5 26.5t32.5 68.5v320h82v-487z" />
    <glyph glyph-name="ugrave" unicode="&#xf9;" horiz-adv-x="526" 
d="M324 545h-73l-105 146h94zM451 0h-82v25q-49 -34 -109 -34q-200 0 -200 215v281h83v-277q0 -71 24 -103q26 -35 93 -35q44 0 76.5 26.5t32.5 68.5v320h82v-487z" />
    <glyph glyph-name="ucircumflex" unicode="&#xfb;" horiz-adv-x="526" 
d="M425 533h-103l-63 103l-63 -103h-104l115 146h103zM451 0h-82v25q-49 -34 -109 -34q-200 0 -200 215v281h83v-277q0 -71 24 -103q26 -35 93 -35q44 0 76.5 26.5t32.5 68.5v320h82v-487z" />
    <glyph glyph-name="udieresis" unicode="&#xfc;" horiz-adv-x="526" 
d="M417 598q0 -23 -16.5 -39.5t-39.5 -16.5t-39.5 16.5t-16.5 39.5t16.5 39.5t39.5 16.5t39.5 -16.5t16.5 -39.5zM210 598q0 -23 -16.5 -39.5t-39.5 -16.5t-39.5 16.5t-16.5 39.5t16.5 39.5t39.5 16.5t39.5 -16.5t16.5 -39.5zM451 0h-82v25q-49 -34 -109 -34
q-200 0 -200 215v281h83v-277q0 -71 24 -103q26 -35 93 -35q44 0 76.5 26.5t32.5 68.5v320h82v-487z" />
    <glyph glyph-name="dagger" unicode="&#x2020;" horiz-adv-x="499" 
d="M444 408h-156v-408h-77v408h-156v80h156v210h77v-210h156v-80z" />
    <glyph glyph-name="degree" unicode="&#xb0;" horiz-adv-x="305" 
d="M260 661q0 -45 -31.5 -76.5t-75.5 -31.5q-45 0 -76.5 31.5t-31.5 76.5q0 44 31.5 75.5t76.5 31.5q44 0 75.5 -31.5t31.5 -75.5zM201 661q0 20 -14 34.5t-34 14.5q-21 0 -35 -14.5t-14 -34.5t14 -34.5t35 -14.5q20 0 34 14.5t14 34.5z" />
    <glyph glyph-name="cent" unicode="&#xa2;" horiz-adv-x="488" 
d="M443 404l-56 -50q-46 50 -81 60l-76 -350q18 -4 37 -4q35 0 60 13t60 52l56 -51q-46 -49 -84.5 -67.5t-91.5 -18.5q-27 0 -52 5l-18 -82l-66 14l20 92q-106 63 -106 222q0 111 55.5 179t153.5 72l17 77l65 -14l-14 -68q57 -12 121 -81zM238 416q-54 -10 -83.5 -52.5
t-29.5 -124.5q0 -98 44 -141z" />
    <glyph glyph-name="sterling" unicode="&#xa3;" horiz-adv-x="528" 
d="M483 601l-61 -53q-35 40 -58 54q-31 18 -80 18q-109 0 -109 -128q0 -36 13 -102h129l-17 -80h-96q10 -53 10 -93q0 -65 -25 -136h278v-81h-373v59q39 89 39 159q0 36 -11 92h-77l17 80h44q-12 64 -12 102q0 92 48 148q53 61 142 61q71 0 120 -29q36 -21 79 -71z" />
    <glyph glyph-name="section" unicode="&#xa7;" horiz-adv-x="517" 
d="M452 223q0 -86 -49 -138q30 -39 30 -98q0 -82 -49.5 -134.5t-127.5 -52.5q-107 0 -189 155l71 39q59 -112 118 -112q43 0 69.5 28.5t26.5 76.5q0 37 -19 55q-22 20 -84 35q-184 45 -184 194q0 85 50 138q-31 39 -31 98q0 81 49.5 133.5t127.5 52.5q107 0 189 -154
l-70 -39q-60 112 -119 112q-43 0 -69.5 -28.5t-26.5 -76.5q0 -37 20 -55q21 -21 83 -36q184 -44 184 -193zM372 223q0 85 -123 114q-41 10 -69 23q-34 -29 -34 -89q0 -85 122 -115q41 -10 69 -22q35 29 35 89z" />
    <glyph glyph-name="bullet" unicode="&#x2022;" horiz-adv-x="449" 
d="M384 338q0 -66 -46.5 -113t-112.5 -47t-113 47t-47 113t47 113t113 47t112.5 -47t46.5 -113z" />
    <glyph glyph-name="paragraph" unicode="&#xb6;" horiz-adv-x="577" 
d="M492 -151h-87v749h-78v-749h-87v442q-79 8 -132 66t-53 137q0 85 59.5 144.5t144.5 59.5h233v-849z" />
    <glyph glyph-name="germandbls" unicode="&#xdf;" horiz-adv-x="512" 
d="M467 245q0 -123 -51 -181q-53 -61 -174 -64v84q83 2 113 41q27 35 27 119q0 86 -27 122q-31 42 -113 42v79q69 0 69 68q0 26 -20 46t-47 20q-94 0 -94 -130v-491h-85v414h-44v73h44q0 218 179 218q65 0 108.5 -43.5t43.5 -106.5q0 -56 -35 -89q106 -45 106 -221z" />
    <glyph glyph-name="registered" unicode="&#xae;" horiz-adv-x="790" 
d="M745 348q0 -145 -102.5 -247.5t-247.5 -102.5t-247.5 102.5t-102.5 247.5t102.5 247.5t247.5 102.5t247.5 -102.5t102.5 -247.5zM675 348q0 116 -82 198t-198 82q-115 0 -197 -82t-82 -198t82 -197.5t197 -81.5q116 0 198 81.5t82 197.5zM569 153h-88l-82 135
q-13 21 -28 21h-31v-156h-75v391h142q55 0 85 -20q50 -31 50 -98q0 -83 -73 -108l2 -3zM467 426q0 34 -30 40q-11 2 -30 2h-67v-84h67q31 0 43 7q17 9 17 35z" />
    <glyph glyph-name="copyright" unicode="&#xa9;" horiz-adv-x="790" 
d="M745 348q0 -145 -102.5 -247.5t-247.5 -102.5t-247.5 102.5t-102.5 247.5t102.5 247.5t247.5 102.5t247.5 -102.5t102.5 -247.5zM675 348q0 116 -82 198t-198 82q-115 0 -197 -82t-82 -198t82 -197.5t197 -81.5q116 0 198 81.5t82 197.5zM535 475l-58 -48q-39 47 -74 47
q-44 0 -66 -34q-19 -30 -19 -92t19 -91q22 -35 66 -35q35 0 74 47l58 -48q-62 -74 -132 -74q-85 0 -129 69q-31 48 -31 132t31 132q44 70 129 70q70 0 132 -75z" />
    <glyph glyph-name="trademark" unicode="&#x2122;" horiz-adv-x="507" 
d="M447 485h-37v115l-49 -115h-36l-48 115v-115h-38v213h37l67 -159l68 159h36v-213zM212 662h-67v-177h-38v177h-67v36h172v-36z" />
    <glyph glyph-name="acute" unicode="&#xb4;" horiz-adv-x="308" 
d="M243 691l-105 -146h-73l84 146h94z" />
    <glyph glyph-name="dieresis" unicode="&#xa8;" horiz-adv-x="449" 
d="M384 598q0 -23 -16.5 -39.5t-39.5 -16.5t-39.5 16.5t-16.5 39.5t16.5 39.5t39.5 16.5t39.5 -16.5t16.5 -39.5zM177 598q0 -23 -16.5 -39.5t-39.5 -16.5t-39.5 16.5t-16.5 39.5t16.5 39.5t39.5 16.5t39.5 -16.5t16.5 -39.5z" />
    <glyph glyph-name="AE" unicode="&#xc6;" horiz-adv-x="935" 
d="M890 0h-441l1 201h-236l-98 -201h-101l347 698h528v-86h-351v-209h304v-83h-304v-234h351v-86zM450 284v326h-40l-158 -326h198z" />
    <glyph glyph-name="Oslash" unicode="&#xd8;" horiz-adv-x="656" 
d="M611 349q0 -154 -56 -238q-79 -120 -227 -120q-80 0 -143 39l-18 -30h-97l50 85q-75 90 -75 264q0 154 56 238q80 120 227 120q78 0 139 -36l17 27h97l-48 -81q78 -90 78 -268zM523 349q0 124 -38 186l-256 -431q42 -26 99 -26q100 0 153 80q42 63 42 191zM423 596
q-41 24 -95 24q-100 0 -153 -80q-42 -62 -42 -191q0 -121 36 -181z" />
    <glyph glyph-name="plusminus" unicode="&#xb1;" horiz-adv-x="536" 
d="M481 274h-171v-168h-84v168h-171v83h171v168h84v-168h171v-83zM481 0h-426v82h426v-82z" />
    <glyph glyph-name="yen" unicode="&#xa5;" horiz-adv-x="619" 
d="M584 698l-152 -306h82l-18 -84h-105l-22 -44h145l-18 -84h-143v-180h-87v180h-161l18 84h128l-22 44h-124l18 84h64l-152 306h98l177 -356l176 356h98z" />
    <glyph glyph-name="mu" unicode="&#xb5;" horiz-adv-x="523" 
d="M458 0h-84v22q-48 -30 -108 -30q-67 0 -116 31v-214h-85v678h85v-276q0 -68 20 -98q27 -41 96 -41q66 0 94 48q9 15 14 37v330h84v-487z" />
    <glyph glyph-name="mu" unicode="&#x3bc;" horiz-adv-x="523" 
d="M458 0h-84v22q-48 -30 -108 -30q-67 0 -116 31v-214h-85v678h85v-276q0 -68 20 -98q27 -41 96 -41q66 0 94 48q9 15 14 37v330h84v-487z" />
    <glyph glyph-name="ordfeminine" unicode="&#xaa;" horiz-adv-x="413" 
d="M368 325l-77 -24l-7 22q-44 -24 -97 -24q-58 0 -100 37t-42 90t42 89.5t100 36.5h63q14 0 24 8v26q0 16 -16 28.5t-42 12.5q-49 0 -74 -38l-79 25q44 93 153 93q57 0 98 -35t41 -86v-219zM283 189h-157v73h157v-73zM274 414v61q-12 -2 -24 -2h-63q-26 0 -43.5 -14.5
t-17.5 -32.5t17.5 -32.5t43.5 -14.5q49 0 87 35z" />
    <glyph glyph-name="ordmasculine" unicode="&#xba;" horiz-adv-x="436" 
d="M391 503q0 -84 -28 -130q-45 -73 -145 -73t-145 73q-28 46 -28 129v1q0 84 28 131q45 73 145 73t145 -73q28 -46 28 -131zM297 189h-157v73h157v-73zM309 503q0 62 -16 89q-22 35 -75 35t-74 -35q-17 -27 -17 -89t17 -89q21 -34 74 -34t75 34q16 27 16 89z" />
    <glyph glyph-name="ae" unicode="&#xe6;" horiz-adv-x="800" 
d="M755 80q-73 -89 -190 -89q-108 0 -169 64q-78 -65 -177 -65q-71 0 -122.5 43.5t-51.5 106.5q0 64 51.5 108.5t122.5 44.5h82q24 0 43 16l-3 47q-1 22 -24.5 39.5t-59.5 17.5q-92 0 -118 -82l-82 24q22 72 84 109q51 31 116 31q90 0 141 -61q58 61 157 61q109 0 167 -86
q23 -34 28 -96q3 -25 2 -102h-326q4 -59 24 -89q33 -49 115 -49q75 0 122 57zM665 293q-4 54 -16 71q-32 49 -94 49q-72 0 -105 -49q-15 -22 -22 -71h237zM353 129q-11 36 -13 86q-19 -4 -39 -4h-82q-37 0 -62.5 -22t-25.5 -49q0 -26 25.5 -46.5t62.5 -20.5q75 0 134 56z
" />
    <glyph glyph-name="oslash" unicode="&#xf8;" horiz-adv-x="517" 
d="M467 243q0 -250 -208 -250q-60 0 -102 20l-8 -13h-86l36 58q-49 63 -49 184q0 252 209 252q58 0 100 -20l8 13h86l-36 -58q50 -63 50 -186zM384 242q0 70 -16 108l-167 -267q24 -9 57 -9q74 0 104 50q22 38 22 118zM315 404q-24 9 -57 9q-74 0 -103 -51q-22 -39 -22 -120
q0 -67 15 -105z" />
    <glyph glyph-name="questiondown" unicode="&#xbf;" horiz-adv-x="488" 
d="M304 431q0 -24 -17 -41t-40 -17q-24 0 -41 17t-17 41q0 23 17 40t41 17q23 0 40 -17t17 -40zM451 -23q0 -96 -63 -152q-57 -51 -141 -51q-83 0 -142 51.5t-59 136.5q0 89 88 141q41 24 55 42q20 24 22 66l4 95h64q9 -71 9 -96q0 -65 -28 -106q-19 -26 -59.5 -51
t-50.5 -36q-21 -21 -21 -55q0 -49 33.5 -77.5t84.5 -28.5q52 0 86 30q38 33 38 91h80z" />
    <glyph glyph-name="exclamdown" unicode="&#xa1;" horiz-adv-x="295" 
d="M195 430q0 -24 -17 -41t-41 -17q-23 0 -40 17t-17 41q0 23 17 40t40 17q24 0 41 -17t17 -40zM182 -219h-89v334l5 198h79l5 -198v-334z" />
    <glyph glyph-name="logicalnot" unicode="&#xac;" horiz-adv-x="531" 
d="M476 88h-73v135h-358v73h431v-208z" />
    <glyph glyph-name="florin" unicode="&#x192;" horiz-adv-x="384" 
d="M359 698v-85q-63 0 -93.5 -25.5t-43.5 -83.5q-4 -17 -12 -62h71v-85h-86l-97 -560l-83 15l95 545h-56v85h70q13 75 19 97q15 54 43 89q57 70 173 70z" />
    <glyph glyph-name="guillemotleft" unicode="&#xab;" horiz-adv-x="491" 
d="M436 393l-144 -135l144 -135v-103l-224 209v57l223 210zM269 393l-144 -135l144 -135v-103l-224 209v57l223 210z" />
    <glyph glyph-name="guillemotright" unicode="&#xbb;" horiz-adv-x="491" 
d="M446 229l-224 -209v103l144 135l-144 135v103l224 -210v-57zM279 229l-224 -209v103l144 135l-144 135v103l224 -210v-57z" />
    <glyph glyph-name="ellipsis" unicode="&#x2026;" horiz-adv-x="724" 
d="M649 52q0 -25 -17.5 -42.5t-43.5 -17.5q-25 0 -42.5 17.5t-17.5 42.5q0 26 17.5 43.5t42.5 17.5q26 0 43.5 -17.5t17.5 -43.5zM423 52q0 -25 -18 -42.5t-43 -17.5t-43 17.5t-18 42.5q0 26 18 43.5t43 17.5t43 -17.5t18 -43.5zM197 52q0 -25 -18 -42.5t-43 -17.5t-43 17.5
t-18 42.5q0 26 18 43.5t43 17.5t43 -17.5t18 -43.5z" />
    <glyph glyph-name="nonbreakingspace" unicode="&#xa0;" horiz-adv-x="140" 
 />
    <glyph glyph-name="Agrave" unicode="&#xc0;" horiz-adv-x="655" 
d="M373 775h-73l-105 146h94zM645 0h-95l-79 202h-288l-78 -202h-95l273 698h89zM439 286l-112 284l-111 -284h223z" />
    <glyph glyph-name="Atilde" unicode="&#xc3;" horiz-adv-x="655" 
d="M524 817q-61 -66 -113 -66q-33 0 -79 29t-68 29q-27 0 -57 -43l-52 49q55 66 110 66q34 0 80 -29t68 -29q25 0 60 43zM645 0h-95l-79 202h-288l-78 -202h-95l273 698h89zM439 286l-112 284l-111 -284h223z" />
    <glyph glyph-name="Otilde" unicode="&#xd5;" horiz-adv-x="656" 
d="M522 817q-61 -66 -113 -66q-33 0 -79 29t-68 29q-27 0 -57 -43l-52 49q55 66 110 66q34 0 80 -29t68 -29q25 0 60 43zM611 349q0 -153 -56 -238q-78 -120 -227 -120t-227 120q-56 85 -56 238t56 238q79 120 227 120q149 0 227 -120q56 -85 56 -238zM523 349
q0 127 -42 191q-52 80 -153 80t-153 -80q-42 -64 -42 -191t42 -191q52 -80 153 -80t153 80q42 64 42 191z" />
    <glyph glyph-name="OE" unicode="&#x152;" horiz-adv-x="1016" 
d="M971 -1h-441v73q-78 -81 -198 -81q-151 0 -230 120q-57 85 -57 238t57 238q80 120 230 120q120 0 198 -80v72h441v-87h-352v-206h305v-86h-305v-234h352v-87zM530 349q0 127 -43 191q-53 80 -155 80t-155 -80q-43 -64 -43 -191t43 -191q53 -80 155 -80t155 80
q43 64 43 191z" />
    <glyph glyph-name="oe" unicode="&#x153;" horiz-adv-x="849" 
d="M804 80q-73 -89 -191 -89q-122 0 -182 78q-57 -78 -172 -78q-123 0 -179 87q-35 56 -35 164q0 109 35 165q56 87 179 87q115 0 172 -78q58 78 173 78q108 0 166 -86q23 -34 29 -95q2 -24 2 -100h-327q4 -62 24 -91q33 -49 115 -49q76 0 123 57zM714 295q-4 50 -16 68
q-33 49 -94 49q-73 0 -106 -49q-16 -23 -22 -68h238zM387 242q0 86 -23 122q-31 48 -105 48q-75 0 -105 -48q-23 -36 -23 -122q0 -85 23 -121q31 -48 105 -48t105 48q23 36 23 121z" />
    <glyph glyph-name="endash" unicode="&#x2013;" horiz-adv-x="524" 
d="M469 238h-414v71h414v-71z" />
    <glyph glyph-name="emdash" unicode="&#x2014;" horiz-adv-x="822" 
d="M767 238h-712v71h712v-71z" />
    <glyph glyph-name="quotedblleft" unicode="&#x201c;" horiz-adv-x="416" 
d="M346 752l-7 -176q-1 -21 -16 -35.5t-36 -14.5q-23 0 -39.5 15t-13.5 35l7 50l81 126h24zM182 752l-7 -176q-1 -21 -16 -35.5t-36 -14.5q-22 0 -38.5 15t-14.5 35l7 50l81 126h24z" />
    <glyph glyph-name="quotedblright" unicode="&#x201d;" horiz-adv-x="416" 
d="M346 702l-7 -50l-82 -126h-23l7 176q1 21 16 35.5t36 14.5q22 0 38.5 -15t14.5 -35zM182 702l-7 -50l-81 -126h-24l7 176q1 21 16 35.5t36 14.5q23 0 39.5 -15t13.5 -35z" />
    <glyph glyph-name="quoteleft" unicode="&#x2018;" 
d="M182 752l-7 -176q-1 -21 -16 -35.5t-36 -14.5q-22 0 -38.5 15t-14.5 35l7 50l81 126h24z" />
    <glyph glyph-name="quoteright" unicode="&#x2019;" 
d="M182 702l-7 -50l-81 -126h-24l7 176q1 21 16 35.5t36 14.5q23 0 39.5 -15t13.5 -35z" />
    <glyph glyph-name="divide" unicode="&#xf7;" horiz-adv-x="524" 
d="M313 429q0 -22 -15.5 -37.5t-37.5 -15.5t-37.5 15.5t-15.5 37.5t15.5 38t37.5 16t37.5 -16t15.5 -38zM469 238h-414v71h414v-71zM313 119q0 -23 -15.5 -38.5t-37.5 -15.5t-37.5 15.5t-15.5 38.5q0 22 15.5 37.5t37.5 15.5t37.5 -15.5t15.5 -37.5z" />
    <glyph glyph-name="ydieresis" unicode="&#xff;" horiz-adv-x="485" 
d="M404 598q0 -23 -16.5 -39.5t-39.5 -16.5t-39.5 16.5t-16.5 39.5t16.5 39.5t39.5 16.5t39.5 -16.5t16.5 -39.5zM197 598q0 -23 -16.5 -39.5t-39.5 -16.5t-39.5 16.5t-16.5 39.5t16.5 39.5t39.5 16.5t39.5 -16.5t16.5 -39.5zM465 487l-223 -602q-17 -44 -44 -69
q-41 -37 -98 -36h-38v84q50 0 62 4q23 9 38 46l33 87l-175 486h91l130 -365l133 365h91z" />
    <glyph glyph-name="Ydieresis" unicode="&#x178;" horiz-adv-x="599" 
d="M461 831q0 -23 -16.5 -39.5t-39.5 -16.5t-39.5 16.5t-16.5 39.5t16.5 39.5t39.5 16.5t39.5 -16.5t16.5 -39.5zM254 831q0 -23 -16.5 -39.5t-39.5 -16.5t-39.5 16.5t-16.5 39.5t16.5 39.5t39.5 16.5t39.5 -16.5t16.5 -39.5zM574 698l-231 -466v-232h-87v234l-231 464h98
l177 -356l176 356h98z" />
    <glyph glyph-name="currency" unicode="&#xa4;" horiz-adv-x="660" 
d="M602 63q-81 -72 -197 -72q-110 0 -187 67q-73 64 -95 170h-81l19 78h52q-1 25 0 54h-71l19 79h56q15 119 88 191q78 77 200 77q112 0 193 -72l-46 -76q-38 36 -70 49.5t-77 13.5q-85 0 -135.5 -49.5t-63.5 -133.5h258l-18 -79h-245q0 -34 1 -54h262l-18 -78h-233
q19 -70 69 -111t123 -41q45 0 77.5 13.5t69.5 49.5z" />
    <glyph glyph-name="guilsinglleft" unicode="&#x2039;" horiz-adv-x="324" 
d="M269 396l-144 -138l144 -138v-106l-224 215v58l223 214z" />
    <glyph glyph-name="guilsinglright" unicode="&#x203a;" horiz-adv-x="324" 
d="M279 229l-224 -215v106l144 138l-144 138v105l224 -214v-58z" />
    <glyph glyph-name="daggerdbl" unicode="&#x2021;" horiz-adv-x="499" 
d="M444 12h-155v-212h-78v212h-156v81h156v313h-156v81h156v211h78v-211h155v-81h-155v-313h155v-81z" />
    <glyph glyph-name="periodcentered" unicode="&#xb7;" 
d="M187 265q0 -26 -18 -43.5t-43 -17.5t-43 17.5t-18 43.5q0 25 18 43t43 18t43 -18t18 -43z" />
    <glyph glyph-name="periodcentered" unicode="&#x2219;" 
d="M187 265q0 -26 -18 -43.5t-43 -17.5t-43 17.5t-18 43.5q0 25 18 43t43 18t43 -18t18 -43z" />
    <glyph glyph-name="quotesinglbase" unicode="&#x201a;" 
d="M182 50l-7 -50l-81 -126h-24l7 176q1 21 16 35.5t36 14.5q23 0 39.5 -15t13.5 -35z" />
    <glyph glyph-name="quotedblbase" unicode="&#x201e;" horiz-adv-x="416" 
d="M346 50l-7 -50l-82 -126h-23l7 176q1 21 16 35.5t36 14.5q22 0 38.5 -15t14.5 -35zM182 50l-7 -50l-81 -126h-24l7 176q1 21 16 35.5t36 14.5q23 0 39.5 -15t13.5 -35z" />
    <glyph glyph-name="perthousand" unicode="&#x2030;" horiz-adv-x="997" 
d="M952 186q0 -82 -29 -128q-41 -68 -120 -68q-73 0 -115 58q-41 -58 -114 -58q-79 0 -121 68q-28 46 -28 128q0 83 28 129q42 68 121 68q73 0 114 -59q42 59 115 59q79 0 120 -68q29 -47 29 -129zM581 698l-314 -698h-80l314 698h80zM343 511q0 -82 -28 -129
q-42 -68 -121 -68t-121 68q-28 47 -28 129t28 129q42 68 121 68t121 -68q28 -47 28 -129zM883 186q0 63 -20 95.5t-60 32.5t-62 -34q-18 -31 -18 -94q0 -62 18 -93q22 -35 62 -35t61 35q19 31 19 93zM654 186q0 63 -20 95.5t-60 32.5t-62 -34q-18 -31 -18 -94q0 -62 18 -93
q22 -35 62 -35t61 35q19 31 19 93zM274 511q0 63 -19 93q-21 35 -61 35t-61 -35q-19 -30 -19 -93t19 -93q21 -35 61 -35t62 35q18 30 18 93z" />
    <glyph glyph-name="Acircumflex" unicode="&#xc2;" horiz-adv-x="655" 
d="M492 775h-104l-63 103l-63 -103h-104l116 146h102zM645 0h-95l-79 202h-288l-78 -202h-95l273 698h89zM439 286l-112 284l-111 -284h223z" />
    <glyph glyph-name="Ecircumflex" unicode="&#xca;" horiz-adv-x="579" 
d="M483 775h-104l-63 103l-63 -103h-104l116 146h102zM529 0h-454v698h454v-86h-367v-208h321v-84h-321v-234h367v-86z" />
    <glyph glyph-name="Aacute" unicode="&#xc1;" horiz-adv-x="655" 
d="M459 921l-105 -146h-73l84 146h94zM645 0h-95l-79 202h-288l-78 -202h-95l273 698h89zM439 286l-112 284l-111 -284h223z" />
    <glyph glyph-name="Edieresis" unicode="&#xcb;" horiz-adv-x="579" 
d="M477 831q0 -23 -16.5 -39.5t-39.5 -16.5t-39.5 16.5t-16.5 39.5t16.5 39.5t39.5 16.5t39.5 -16.5t16.5 -39.5zM270 831q0 -23 -16.5 -39.5t-39.5 -16.5q-24 0 -40 16.5t-16 39.5t16 39.5t40 16.5q23 0 39.5 -16.5t16.5 -39.5zM529 0h-454v698h454v-86h-367v-208h321v-84
h-321v-234h367v-86z" />
    <glyph glyph-name="Egrave" unicode="&#xc8;" horiz-adv-x="579" 
d="M372 775h-73l-105 146h94zM529 0h-454v698h454v-86h-367v-208h321v-84h-321v-234h367v-86z" />
    <glyph glyph-name="Iacute" unicode="&#xcd;" horiz-adv-x="258" 
d="M243 921l-105 -146h-73l84 146h94zM177 0h-91v698h91v-698z" />
    <glyph glyph-name="Icircumflex" unicode="&#xce;" 
d="M290 775h-103l-63 103l-63 -103h-104l115 146h103zM169 0h-90v698h90v-698z" />
    <glyph glyph-name="Idieresis" unicode="&#xcf;" 
d="M287 831q0 -23 -16.5 -39.5t-39.5 -16.5t-39.5 16.5t-16.5 39.5t16.5 39.5t39.5 16.5t39.5 -16.5t16.5 -39.5zM80 831q0 -23 -16.5 -39.5t-39.5 -16.5t-39.5 16.5t-16.5 39.5t16.5 39.5t39.5 16.5t39.5 -16.5t16.5 -39.5zM173 0h-91v698h91v-698z" />
    <glyph glyph-name="Igrave" unicode="&#xcc;" 
d="M187 775h-74l-105 146h95zM172 0h-90v698h90v-698z" />
    <glyph glyph-name="Oacute" unicode="&#xd3;" horiz-adv-x="656" 
d="M440 921l-105 -146h-73l84 146h94zM611 349q0 -153 -56 -238q-78 -120 -227 -120t-227 120q-56 85 -56 238t56 238q79 120 227 120q149 0 227 -120q56 -85 56 -238zM523 349q0 127 -42 191q-52 80 -153 80t-153 -80q-42 -64 -42 -191t42 -191q52 -80 153 -80t153 80
q42 64 42 191z" />
    <glyph glyph-name="Ocircumflex" unicode="&#xd4;" horiz-adv-x="656" 
d="M493 775h-104l-63 103l-63 -103h-104l116 146h102zM611 349q0 -153 -56 -238q-78 -120 -227 -120t-227 120q-56 85 -56 238t56 238q79 120 227 120q149 0 227 -120q56 -85 56 -238zM523 349q0 127 -42 191q-52 80 -153 80t-153 -80q-42 -64 -42 -191t42 -191
q52 -80 153 -80t153 80q42 64 42 191z" />
    <glyph glyph-name="Ograve" unicode="&#xd2;" horiz-adv-x="656" 
d="M396 775h-73l-105 146h94zM611 349q0 -153 -56 -238q-78 -120 -227 -120t-227 120q-56 85 -56 238t56 238q79 120 227 120q149 0 227 -120q56 -85 56 -238zM523 349q0 127 -42 191q-52 80 -153 80t-153 -80q-42 -64 -42 -191t42 -191q52 -80 153 -80t153 80q42 64 42 191
z" />
    <glyph glyph-name="Uacute" unicode="&#xda;" horiz-adv-x="654" 
d="M438 921l-105 -146h-73l84 146h94zM584 303q0 -132 -42 -202q-67 -109 -215 -110q-148 0 -214 110q-43 70 -43 202v395h88v-395q0 -108 30 -158q41 -67 139 -67t139 67q30 50 30 158v395h88v-395z" />
    <glyph glyph-name="Ucircumflex" unicode="&#xdb;" horiz-adv-x="654" 
d="M501 775h-104l-63 103l-63 -103h-104l116 146h102zM584 303q0 -132 -42 -202q-67 -109 -215 -110q-148 0 -214 110q-43 70 -43 202v395h88v-395q0 -108 30 -158q41 -67 139 -67t139 67q30 50 30 158v395h88v-395z" />
    <glyph glyph-name="Ugrave" unicode="&#xd9;" horiz-adv-x="654" 
d="M407 775h-73l-105 146h94zM584 303q0 -132 -42 -202q-67 -109 -215 -110q-148 0 -214 110q-43 70 -43 202v395h88v-395q0 -108 30 -158q41 -67 139 -67t139 67q30 50 30 158v395h88v-395z" />
    <glyph glyph-name="circumflex" unicode="&#x2c6;" horiz-adv-x="513" 
d="M423 533h-104l-63 103l-63 -103h-103l115 146h103z" />
    <glyph glyph-name="tilde" unicode="&#x2dc;" horiz-adv-x="494" 
d="M426 595q-56 -67 -114 -67q-36 0 -73 25.5t-57 25.5q-26 0 -55 -41l-56 45q51 68 112 68q33 0 72.5 -25.5t58.5 -25.5q29 0 58 42z" />
    <glyph glyph-name="macron" unicode="&#xaf;" horiz-adv-x="530" 
d="M425 579h-319v73h319v-73z" />
    <glyph glyph-name="macron" unicode="&#x2c9;" horiz-adv-x="530" 
d="M425 579h-319v73h319v-73z" />
    <glyph glyph-name="cedilla" unicode="&#xb8;" horiz-adv-x="527" 
d="M337 -67l-68 -129h-96l91 132l-27 72l65 23z" />
    <glyph glyph-name="Scaron" unicode="&#x160;" horiz-adv-x="618" 
d="M469 921l-116 -146h-103l-115 146h104l63 -103l63 103h104zM573 201q0 -56 -31 -106q-65 -106 -220 -106q-239 0 -277 217l87 15q16 -95 83 -125q45 -20 107 -20q105 0 145 64q18 29 18 61q0 63 -67 95q-31 15 -129 38q-125 30 -166 68q-50 48 -50 119q0 79 64 133
q58 49 165 49q168 0 235 -119q5 -9 20 -39l-80 -37q-31 65 -66 85q-42 23 -109 23q-75 0 -108 -27.5t-33 -67.5q0 -41 29 -61t120 -42q107 -25 147 -44q116 -56 116 -173z" />
    <glyph glyph-name="scaron" unicode="&#x161;" horiz-adv-x="466" 
d="M405 679l-115 -146h-103l-115 146h103l63 -103l63 103h104zM426 142q0 -40 -23 -76q-49 -75 -162 -75q-165 0 -201 142l83 15q15 -44 44 -61q25 -14 74 -14q66 0 90 37q11 16 11 32q0 38 -39 56q-21 9 -87 24q-90 20 -120 48q-39 35 -39 87q0 61 49 100q43 35 121 35
q122 0 172 -83q3 -5 8 -16l-75 -37q-16 28 -34 39q-26 14 -71 14q-48 0 -67 -15t-19 -37q0 -16 13 -27.5t81 -27.5q75 -16 103 -29q88 -40 88 -131z" />
    <glyph glyph-name="brokenbar" unicode="&#xa6;" horiz-adv-x="357" 
d="M220 389h-77v386h77v-386zM220 -76h-77v386h77v-386z" />
    <glyph glyph-name="Eth" unicode="&#xd0;" horiz-adv-x="705" 
d="M617 349q0 -96 -8 -155q-16 -116 -100 -160q-63 -34 -187 -34h-216v304h-41v87h41v307h216q124 0 187 -33q84 -45 100 -161q8 -59 8 -155zM529 349q0 91 -7 144q-10 74 -56 96.5t-144 22.5h-128v-221h158v-87h-158v-217h128q98 0 144 22t56 96q7 54 7 144z" />
    <glyph glyph-name="eth" unicode="&#xf0;" horiz-adv-x="565" 
d="M492 244q0 -106 -34 -163q-55 -90 -175 -90q-121 0 -175 90q-35 57 -35 163t35 164q54 90 175 90q24 0 47 -5l-23 53h-122v82h86l-54 122h89l54 -122h90v-82h-54l44 -92l22 -42q30 -55 30 -168zM407 244q0 83 -22 120q-30 49 -103 49q-72 0 -102 -49q-22 -37 -22 -120
t22 -120q30 -49 102 -49q73 0 103 49q22 38 22 120z" />
    <glyph glyph-name="Yacute" unicode="&#xdd;" horiz-adv-x="599" 
d="M410 921l-105 -146h-73l83 146h95zM574 698l-231 -466v-232h-87v234l-231 464h98l177 -356l176 356h98z" />
    <glyph glyph-name="yacute" unicode="&#xfd;" horiz-adv-x="484" 
d="M347 691l-105 -146h-73l84 146h94zM465 487l-224 -602q-16 -44 -44 -69q-40 -37 -98 -36h-38l1 84q50 0 62 4q23 9 37 46l34 87l-176 486h91l130 -365l134 365h91z" />
    <glyph glyph-name="Thorn" unicode="&#xde;" horiz-adv-x="670" 
d="M607 360q0 -115 -84 -167q-54 -33 -153 -33h-174v-160h-88v698h88v-139h174q99 0 153 -33q84 -52 84 -166zM519 360q0 66 -43 93q-32 20 -106 20h-174v-226h174q74 0 106 20q43 26 43 93z" />
    <glyph glyph-name="thorn" unicode="&#xfe;" horiz-adv-x="554" 
d="M496 247q0 -107 -32 -165q-52 -91 -168 -91q-61 0 -108 29v-240h-85v918h85v-225q47 29 108 29q116 0 168 -91q32 -58 32 -164zM412 246q0 85 -22 123q-27 48 -94 48q-99 0 -108 -100v-142q3 -32 14 -51q27 -48 94 -48t94 48q22 39 22 122z" />
    <glyph glyph-name="minus" unicode="&#xad;" horiz-adv-x="520" 
d="M467 238h-414v71h414v-71z" />
    <glyph glyph-name="minus" unicode="&#x2212;" horiz-adv-x="520" 
d="M467 238h-414v71h414v-71z" />
    <glyph glyph-name="multiply" unicode="&#xd7;" horiz-adv-x="481" 
d="M419 152l-57 -57l-122 122l-121 -122l-57 57l121 122l-121 121l57 57l121 -121l122 121l57 -57l-122 -121z" />
    <glyph glyph-name="onesuperior" unicode="&#xb9;" horiz-adv-x="302" 
d="M214 274h-74v324l-57 -35l-37 65l125 76h43v-430z" />
    <glyph glyph-name="twosuperior" unicode="&#xb2;" horiz-adv-x="379" 
d="M316 274h-263v55q16 43 30.5 64.5t64.5 75.5q91 97 91 121q0 40 -49 40q-35 0 -67 -59l-67 35q52 99 134 99q49 0 85 -28q41 -33 41 -87q0 -35 -25 -70q-19 -27 -84 -92q-37 -38 -61 -79h170v-75z" />
    <glyph glyph-name="threesuperior" unicode="&#xb3;" horiz-adv-x="376" 
d="M318 403q0 -54 -39 -92.5t-93 -38.5q-43 0 -77.5 25t-48.5 65l-1 3l73 25l1 -5q13 -38 53 -38q23 0 39 16.5t16 39.5q0 24 -16 40.5t-39 16.5h-30v75h26q22 0 37 14t15 34q0 19 -15 33t-37 14q-38 0 -49 -33l-2 -5l-72 25l2 5q13 37 46.5 60.5t74.5 23.5q53 0 91 -36
t38 -87q0 -49 -35 -84q42 -39 42 -96z" />
    <glyph glyph-name="onehalf" unicode="&#xbd;" horiz-adv-x="824" 
d="M763 0h-263v55q16 43 30.5 64.5t64.5 75.5q91 98 91 122q0 40 -49 40q-36 0 -67 -59l-68 35q53 99 135 99q49 0 85 -29q40 -32 40 -86q0 -36 -25 -71q-19 -27 -83 -92q-38 -38 -61 -79h170v-75zM581 698l-316 -698h-77l315 698h78zM214 274h-74v324l-57 -35l-37 65
l125 76h43v-430z" />
    <glyph glyph-name="onequarter" unicode="&#xbc;" horiz-adv-x="786" 
d="M719 100h-26v-100h-77v100h-165v60l172 271h90l-162 -255h65v94l77 -15v-79h26v-76zM581 698l-316 -698h-77l315 698h78zM214 274h-74v324l-57 -35l-37 65l125 76h43v-430z" />
    <glyph glyph-name="threequarters" unicode="&#xbe;" horiz-adv-x="867" 
d="M783 100h-27v-100h-76v100h-165v60l171 271h84l-160 -255h70v94l76 -15v-79h27v-76zM644 698l-315 -698h-77l315 698h77zM318 403q0 -54 -39 -92.5t-93 -38.5q-43 0 -77.5 25t-48.5 65l-1 3l73 25l1 -5q13 -38 53 -38q23 0 39 16.5t16 39.5q0 24 -16 40.5t-39 16.5h-30
v75h26q22 0 37 14t15 34q0 19 -15 33t-37 14q-38 0 -49 -33l-2 -5l-72 25l2 5q13 37 46.5 60.5t74.5 23.5q53 0 91 -36t38 -87q0 -49 -35 -84q42 -39 42 -96z" />
    <glyph glyph-name="Lslash" unicode="&#x141;" horiz-adv-x="542" 
d="M499 0h-414l-1 245l-36 -16v90l36 16v363h88v-325l161 71v-91l-161 -70v-197h327v-86z" />
    <glyph glyph-name="lslash" unicode="&#x142;" horiz-adv-x="295" 
d="M247 332l-69 -32v-175q0 -26 6 -32q8 -9 37 -9v-84q-124 0 -124 125v136l-49 -23v90l49 23v347h81v-308l69 33v-91z" />
    <glyph glyph-name="Zcaron" unicode="&#x17d;" horiz-adv-x="591" 
d="M465 921l-115 -146h-103l-115 146h104l63 -103l63 103h103zM536 0h-491v69l375 543h-340v86h456v-73l-373 -539h373v-86z" />
    <glyph glyph-name="zcaron" unicode="&#x17e;" horiz-adv-x="466" 
d="M405 679l-115 -146h-103l-115 146h103l63 -103l63 103h104zM421 0h-381v74l264 331h-241v82h358v-71l-266 -334h266v-82z" />
    <glyph glyph-name="notequal" unicode="&#x2260;" horiz-adv-x="541" 
d="M486 121h-226l-39 -107l-64 23l30 84h-132v79h161l36 100h-197v79h226l39 108l65 -24l-31 -84h132v-79h-161l-36 -100h197v-79z" />
    <glyph glyph-name="infinity" unicode="&#x221e;" horiz-adv-x="781" 
d="M736 261q3 -60 -36 -99q-43 -44 -111 -44q-83 0 -198 92q-116 -92 -199 -92q-56 0 -97 34q-46 38 -50 105q-3 63 40 103t107 41q83 0 199 -92q115 92 198 92q57 -1 97 -34q46 -39 50 -106zM658 257q-4 67 -70 68q-51 0 -136 -66q85 -65 136 -65q36 0 56 21q15 15 14 42z
M329 259q-85 66 -136 66q-35 -1 -56 -21q-15 -16 -14 -43q4 -67 70 -67q51 0 136 65z" />
    <glyph glyph-name="lessequal" unicode="&#x2264;" horiz-adv-x="495" 
d="M440 89l-385 176v74l385 176v-90l-269 -123l269 -123v-90zM440 0h-385v83h385v-83z" />
    <glyph glyph-name="greaterequal" unicode="&#x2265;" horiz-adv-x="495" 
d="M440 265l-385 -176v90l270 123l-270 123v90l385 -176v-74zM440 0h-385v83h385v-83z" />
    <glyph glyph-name="partialdiff" unicode="&#x2202;" horiz-adv-x="502" 
d="M447 213q0 -89 -58.5 -152.5t-142.5 -63.5t-142.5 63.5t-58.5 152.5q0 90 58.5 153.5t142.5 63.5q56 0 104 -31q-13 87 -41 144q-34 70 -80 70q-45 0 -98 -68l-68 54q80 102 166 102q24 0 46 -8q170 -59 172 -464v-16zM363 213q0 56 -34.5 94t-82.5 38q-47 0 -81.5 -38
t-34.5 -94q0 -55 34.5 -93t81.5 -38q48 0 82.5 38t34.5 93z" />
    <glyph glyph-name="summation" unicode="&#x2211;" horiz-adv-x="531" 
d="M476 -220h-421v68l251 391l-251 391v68h421v-81h-315l242 -378l-242 -377h315v-82z" />
    <glyph glyph-name="product" unicode="&#x220f;" horiz-adv-x="609" 
d="M534 -197h-85v864h-289v-864h-85v949h459v-949z" />
    <glyph glyph-name="pi" unicode="&#x3c0;" horiz-adv-x="550" 
d="M505 0h-37q-62 0 -92 45q-19 29 -19 77v274h-207v-396h-85v478h377v-356q0 -22 4 -29q5 -11 22 -11h37v-82z" />
    <glyph glyph-name="integral" unicode="&#x222b;" horiz-adv-x="332" 
d="M297 613h-65q-17 0 -22 -12q-3 -8 -3 -29v-642q0 -49 -18 -78q-29 -48 -90 -48h-64v85h64q18 0 22 13q3 7 3 28v642q0 50 18 79q30 47 90 47h65v-85z" />
    <glyph glyph-name="Omega" unicode="&#x3a9;" horiz-adv-x="618" 
d="M563 0h-209v88q58 21 87 72q35 63 35 188q0 126 -35 189q-42 75 -118 75h-27q-77 0 -118 -75q-35 -63 -35 -189q0 -125 35 -188q28 -51 86 -72v-88h-209l15 82h57q-71 87 -71 266q0 147 46 230q66 119 194 119h27q128 0 194 -119q45 -83 45 -230q0 -179 -70 -266h57z" />
    <glyph glyph-name="Omega" unicode="&#x2126;" horiz-adv-x="618" 
d="M563 0h-209v88q58 21 87 72q35 63 35 188q0 126 -35 189q-42 75 -118 75h-27q-77 0 -118 -75q-35 -63 -35 -189q0 -125 35 -188q28 -51 86 -72v-88h-209l15 82h57q-71 87 -71 266q0 147 46 230q66 119 194 119h27q128 0 194 -119q45 -83 45 -230q0 -179 -70 -266h57z" />
    <glyph glyph-name="radical" unicode="&#x221a;" horiz-adv-x="630" 
d="M618 622h-98l-205 -622h-73l-188 488h85l135 -361l187 571h157v-76z" />
    <glyph glyph-name="approxequal" unicode="&#x2248;" horiz-adv-x="541" 
d="M496 365q-34 -33 -57 -45q-32 -17 -71 -17q-37 0 -102.5 23t-96.5 23t-70 -37l-54 53q66 62 129 62q36 0 101.5 -22.5t99.5 -22.5q22 0 37 10q6 3 30 25zM496 200q-34 -32 -57 -45q-32 -17 -71 -17q-37 0 -102.5 23t-96.5 23t-70 -36l-54 52q66 62 129 62
q36 0 101.5 -22.5t99.5 -22.5q22 0 37 10q6 4 30 26z" />
    <glyph glyph-name="approxequal" unicode="&#x22f2;" horiz-adv-x="541" 
d="M496 365q-34 -33 -57 -45q-32 -17 -71 -17q-37 0 -102.5 23t-96.5 23t-70 -37l-54 53q66 62 129 62q36 0 101.5 -22.5t99.5 -22.5q22 0 37 10q6 3 30 25zM496 200q-34 -32 -57 -45q-32 -17 -71 -17q-37 0 -102.5 23t-96.5 23t-70 -36l-54 52q66 62 129 62
q36 0 101.5 -22.5t99.5 -22.5q22 0 37 10q6 4 30 26z" />
    <glyph glyph-name="Delta" unicode="&#x394;" horiz-adv-x="608" 
d="M593 0h-578l289 729zM468 82l-164 416l-165 -416h329z" />
    <glyph glyph-name="Delta" unicode="&#x2206;" horiz-adv-x="608" 
d="M593 0h-578l289 729zM468 82l-164 416l-165 -416h329z" />
    <glyph glyph-name="lozenge" unicode="&#x25ca;" horiz-adv-x="554" 
d="M499 345l-222 -359l-222 359l222 358zM405 345l-128 206l-128 -206l128 -207z" />
    <glyph glyph-name="fraction" unicode="&#x2044;" horiz-adv-x="193" 
d="M293 698l-316 -698h-77l316 698h77z" />
    <glyph glyph-name="fi" unicode="&#xf001;" horiz-adv-x="491" 
d="M426 655q0 -21 -15 -36t-36 -15t-36 15t-15 36t15 36t36 15t36 -15t15 -36zM416 0h-83v414h-162v-414h-82v414h-44v73h44q0 105 42 156q47 55 150 55v-84q-65 0 -89 -32q-21 -27 -21 -95h245v-487z" />
    <glyph glyph-name="fl" unicode="&#xf002;" horiz-adv-x="518" 
d="M463 0q-121 0 -121 125v489h-61q-66 0 -89 -32q-21 -27 -21 -95h95v-73h-95v-414h-82v414h-44v73h44q0 105 43 156q46 55 149 55h143v-573q0 -27 6.5 -34t32.5 -7v-84z" />
    <glyph glyph-name="dotlessi" unicode="&#x131;" horiz-adv-x="277" 
d="M181 0h-85v487h85v-487z" />
    <glyph glyph-name="breve" unicode="&#x2d8;" horiz-adv-x="533" 
d="M453 703q-26 -63 -75.5 -98t-111.5 -35q-61 0 -110.5 35t-75.5 98h75q39 -67 111 -67q73 0 112 67h75z" />
    <glyph glyph-name="dotaccent" unicode="&#x2d9;" horiz-adv-x="543" 
d="M327 585q0 -23 -16 -39t-40 -16q-23 0 -39 16t-16 39q0 24 16 40t39 16q24 0 40 -16t16 -40z" />
    <glyph glyph-name="ring" unicode="&#x2da;" horiz-adv-x="529" 
d="M381 649q0 -48 -34 -82.5t-82 -34.5q-49 0 -83 34.5t-34 82.5t34 82t83 34q48 0 82 -34t34 -82zM315 649q0 21 -15 35.5t-35 14.5q-21 0 -35.5 -14.5t-14.5 -35.5t14.5 -35.5t35.5 -14.5q20 0 35 14.5t15 35.5z" />
    <glyph glyph-name="hungarumlaut" unicode="&#x2dd;" horiz-adv-x="481" 
d="M432 716l-109 -146h-61l78 146h92zM300 716l-109 -146h-61l78 146h92z" />
    <glyph glyph-name="ogonek" unicode="&#x2db;" horiz-adv-x="555" 
d="M388 -196h-95l-110 196h76z" />
    <glyph glyph-name="caron" unicode="&#x2c7;" horiz-adv-x="513" 
d="M423 679l-115 -146h-103l-115 146h103l63 -103l63 103h104z" />
    </font>
</defs>
</svg>
